<?xml version="1.0" encoding="utf-8"?>
<!-- Generator: Adobe Illustrator 21.0.2, SVG Export Plug-In . SVG Version: 6.00 Build 0)  -->
<svg version="1.1" id="Layer_1" xmlns="http://www.w3.org/2000/svg" xmlns:xlink="http://www.w3.org/1999/xlink" x="0px" y="0px"
	 viewBox="0 0 1440 320" style="enable-background:new 0 0 1440 320;" xml:space="preserve">
<style type="text/css">
	.st0{fill-opacity:0.85;}
</style>
<path class="st0" d="M1440,320h-34c-35,0-103.1,0-172,0c-68,0-136.9,0-205,0c-69,0-137.6,0-206,0c-69,0-137.3,0-206,0
	c-68,0-137,0-206,0c-68,0-136.7,0-205,0c-69,0-137.4,0-171.7,0H0l0,0h34c35,0,103.1,0,172-42.7c68-42.3,136.9-128.3,205-160
	C480,85,548.6,107,617,144c69,37,137.3,91,206,90.7c68,0.3,137-53.7,206-53.4c68-0.3,136.7,53.7,205,69.4
	c69,16.3,137.4-5.7,171.7-16L1440,224V320z"/>
</svg>
